# Sandbox Maps position pointer - chevron per design spec
v 0.0000 0.3000 -0.3800
v -1.0500 -1.0000 0.0000
v 0.0000 2.0000 0.0000
v 0.0000 0.3000 -0.3800
v 0.0000 2.0000 0.0000
v 1.0500 -1.0000 0.0000
v 0.0000 0.3000 -0.3800
v 0.0000 -0.1500 0.0000
v -1.0500 -1.0000 0.0000
v 0.0000 0.3000 -0.3800
v 1.0500 -1.0000 0.0000
v 0.0000 -0.1500 0.0000

vn 0.000000000 -0.248820211 -0.968549690
vn -0.042421405 -0.248596225 -0.967677809
vn 0.000000000 0.218145964 -0.975916153
vn 0.000000000 -0.248820211 -0.968549690
vn 0.000000000 0.218145964 -0.975916153
vn 0.042421405 -0.248596225 -0.967677809
vn 0.000000000 -0.248820211 -0.968549690
vn 0.000000000 -0.645180818 -0.764029916
vn -0.042421405 -0.248596225 -0.967677809
vn 0.000000000 -0.248820211 -0.968549690
vn 0.042421405 -0.248596225 -0.967677809
vn 0.000000000 -0.645180818 -0.764029916

f 1//1 2//2 3//3
f 4//4 5//5 6//6
f 7//7 8//8 9//9
f 10//10 11//11 12//12
